<svg width="100" height="100" viewBox="0 0 100 100" xmlns="http://www.w3.org/2000/svg">
  <!-- Back flippers (full reveal) -->
  <ellipse cx="38" cy="82" rx="12" ry="7" fill="#4ade80" stroke="#22c55e" stroke-width="2" transform="rotate(-25 38 82)"/>
  <ellipse cx="62" cy="82" rx="12" ry="7" fill="#4ade80" stroke="#22c55e" stroke-width="2" transform="rotate(25 62 82)"/>
  
  <!-- Shell (full, prominent) -->
  <ellipse cx="50" cy="62" rx="40" ry="30" fill="#4ade80" stroke="#22c55e" stroke-width="3"/>
  
  <!-- Shell pattern (detailed, complete) -->
  <circle cx="50" cy="55" r="10" fill="#86efac" opacity="0.8"/>
  <circle cx="36" cy="62" r="8" fill="#86efac" opacity="0.7"/>
  <circle cx="64" cy="62" r="8" fill="#86efac" opacity="0.7"/>
  <circle cx="42" cy="70" r="7" fill="#86efac" opacity="0.6"/>
  <circle cx="58" cy="70" r="7" fill="#86efac" opacity="0.6"/>
  <circle cx="50" cy="74" r="6" fill="#86efac" opacity="0.5"/>
  
  <!-- Front flippers (adventurous pose) -->
  <ellipse cx="28" cy="72" rx="12" ry="7" fill="#4ade80" stroke="#22c55e" stroke-width="2" transform="rotate(-30 28 72)"/>
  <ellipse cx="72" cy="72" rx="12" ry="7" fill="#4ade80" stroke="#22c55e" stroke-width="2" transform="rotate(30 72 72)"/>
  
  <!-- Head (elevated, adventurous) -->
  <ellipse cx="50" cy="35" rx="22" ry="20" fill="#4ade80" stroke="#22c55e" stroke-width="2.5"/>
  
  <!-- Eyes (wide, excited) -->
  <circle cx="43" cy="32" r="5" fill="#1f2937"/>
  <circle cx="57" cy="32" r="5" fill="#1f2937"/>
  
  <!-- Eye highlights (bright, adventurous) -->
  <circle cx="45" cy="30" r="2.5" fill="white" opacity="1"/>
  <circle cx="59" cy="30" r="2.5" fill="white" opacity="1"/>
  
  <!-- Big happy smile -->
  <path d="M 40 42 Q 50 48 60 42" fill="none" stroke="#1f2937" stroke-width="2.5" stroke-linecap="round"/>
  
  <!-- Compass accessory (adventurer) -->
  <circle cx="72" cy="50" r="8" fill="#fbbf24" stroke="#f59e0b" stroke-width="2" opacity="0.9"/>
  <line x1="72" y1="44" x2="72" y2="50" stroke="#78350f" stroke-width="1.5" stroke-linecap="round"/>
  <line x1="72" y1="50" x2="75" y2="53" stroke="#dc2626" stroke-width="1.5" stroke-linecap="round"/>
</svg>
